


<svg version="1.1" id="레이어_1" xmlns="http://www.w3.org/2000/svg" xmlns:xlink="http://www.w3.org/1999/xlink" x="0px" y="0px" width="982.946px" height="188.637px" viewBox="0 0 982.946 188.637" enable-background="new 0 0 982.946 188.637" xml:space="preserve">
<g>
	<path fill="#03CF5D" d="M282.563,0.197l-73.975,188.637h62.879l8.935-24.967h70.902l8.934,24.967h62.878L349.141,0.197H282.563z
		 M294.766,118.558l21.086-58.927l21.087,58.927H294.766z"></path>
	<polygon fill="#03CF5D" points="684.805,117.171 770.8,117.171 770.8,71.861 684.805,71.861 684.805,46.432 771.725,46.432 
		771.725,0.197 624.699,0.197 624.699,188.834 773.575,188.834 773.575,142.6 684.805,142.6 	"></polygon>
	<polygon fill="#03CF5D" points="498.016,124.231 453.632,0.197 390.752,0.197 464.728,188.834 531.305,188.834 605.281,0.197 
		542.403,0.197 	"></polygon>
	<polygon fill="#03CF5D" points="128.14,101.158 57.864,0.197 -0.392,0.197 -0.392,188.834 60.638,188.834 60.638,87.874 
		130.915,188.834 189.17,188.834 189.17,0.197 128.14,0.197 	"></polygon>
	<path fill="#03CF5D" d="M934.863,124.121l5.722-2.395c21.922-9.176,33.072-29.031,33.072-54.23
		c0-23.828-8.691-41.457-25.833-52.395c-15.933-10.168-36.598-14.905-65.03-14.905h-79.631v188.637h59.182v-52.708h21.268
		l36.064,52.708h62.878L934.863,124.121z M893.785,88.043h-32.365V48.281h32.365c10.979,0,19.88,8.901,19.88,19.88
		C913.665,79.142,904.763,88.043,893.785,88.043z"></path>
</g>
</svg>
